<svg width="152" height="85" viewBox="0 0 152 85" fill="none" xmlns="http://www.w3.org/2000/svg">
        <path d="M11.7791 56.936L11.8194 71.8677L3.48423 71.8902L3.39004 36.9813L11.4525 36.9595L11.489 50.4935L11.7788 50.4928C12.3654 48.8775 13.3279 47.6136 14.6663 46.7009C16.0161 45.7881 17.6683 45.3291 19.6228 45.3239C21.4637 45.3189 23.0671 45.7237 24.4329 46.5382C25.7988 47.3413 26.8587 48.4805 27.6126 49.9557C28.378 51.4309 28.7576 53.1572 28.7516 55.1345L28.7966 71.8219L20.4614 71.8444L20.4208 56.7933C20.4283 55.3388 20.0616 54.2034 19.3207 53.3872C18.5799 52.571 17.539 52.1647 16.1981 52.1683C15.3231 52.1707 14.5509 52.366 13.8815 52.7541C13.2234 53.1309 12.7078 53.6721 12.3347 54.3776C11.973 55.0832 11.7878 55.9359 11.7791 56.936ZM41.3816 72.2312C39.7111 72.2357 38.2274 71.9613 36.9305 71.4079C35.6449 70.8432 34.6255 69.9937 33.8725 68.8594C33.1307 67.7136 32.7575 66.2771 32.7529 64.5499C32.749 63.0953 33.0013 61.8674 33.51 60.866C34.0187 59.8646 34.721 59.0502 35.617 58.4228C36.5131 57.7954 37.5459 57.321 38.7155 56.9997C39.885 56.6669 41.1344 56.442 42.4637 56.3248C43.9519 56.1844 45.1504 56.0391 46.0591 55.8889C46.9678 55.7274 47.6263 55.504 48.0346 55.2188C48.4542 54.9222 48.6633 54.5069 48.6619 53.9728L48.6617 53.8876C48.6593 53.0126 48.3564 52.3373 47.7528 51.8616C47.1492 51.386 46.3361 51.1495 45.3134 51.1523C44.2111 51.1553 43.3254 51.3963 42.6562 51.8754C41.9871 52.3544 41.5627 53.0147 41.3832 53.8561L33.6949 53.6041C33.9179 52.0126 34.4993 50.5906 35.4391 49.338C36.3903 48.0741 37.6944 47.0819 39.3516 46.3615C41.02 45.6298 43.0247 45.2607 45.3656 45.2544C47.0361 45.2499 48.5764 45.4446 49.9866 45.8385C51.3967 46.2211 52.6255 46.7859 53.673 47.5331C54.7204 48.2689 55.5297 49.1758 56.1008 50.2539C56.6832 51.3318 56.9763 52.564 56.9801 53.9504L57.0281 71.7458L49.1872 71.7669L49.1773 68.1192L48.9728 68.1197C48.5093 69.0074 47.9147 69.759 47.1891 70.3746C46.4749 70.9901 45.6295 71.4526 44.6531 71.7621C43.688 72.0715 42.5975 72.2279 41.3816 72.2312ZM43.9407 66.7697C44.8385 66.7673 45.6448 66.5833 46.3597 66.2177C47.086 65.8521 47.6642 65.3505 48.0943 64.713C48.5244 64.0641 48.7382 63.3135 48.7359 62.4613L48.7292 59.9726C48.4909 60.0983 48.2015 60.2127 47.8608 60.3159C47.5316 60.4191 47.1682 60.5166 46.7707 60.6086C46.3732 60.7006 45.9644 60.7812 45.5441 60.8506C45.1238 60.9199 44.7206 60.9835 44.3344 61.0413C43.5506 61.1684 42.8807 61.3634 42.3246 61.6263C41.7798 61.8891 41.3603 62.2312 41.066 62.6524C40.783 63.0623 40.6423 63.5513 40.6438 64.1195C40.6461 64.9831 40.9547 65.6414 41.5696 66.0943C42.1958 66.5471 42.9862 66.7723 43.9407 66.7697ZM62.1246 71.732L62.0305 36.823L70.3656 36.8005L70.4013 50.0107L70.5717 50.0103C70.9105 49.2139 71.3914 48.4455 72.0144 47.7052C72.6488 46.9649 73.454 46.3604 74.43 45.8919C75.4173 45.4119 76.5985 45.1701 77.9735 45.1664C79.7917 45.1615 81.4918 45.6342 83.0739 46.5845C84.6674 47.5347 85.9554 49.0028 86.9381 50.9888C87.9207 52.9748 88.4162 55.5076 88.4245 58.5871C88.4325 61.553 87.9676 64.0372 87.0298 66.0398C86.1034 68.0423 84.8461 69.5457 83.2579 70.55C81.6811 71.5542 79.9267 72.059 77.9949 72.0642C76.6767 72.0677 75.5341 71.8549 74.567 71.4257C73.6 70.9965 72.7859 70.4305 72.125 69.7277C71.4753 69.0249 70.9733 68.2706 70.6188 67.4647L70.3632 67.4654L70.3746 71.7097L62.1246 71.732ZM70.2541 58.6191C70.2579 60.0282 70.4487 61.255 70.8265 62.2994C71.2157 63.3438 71.769 64.1548 72.4865 64.7324C73.2153 65.2986 74.0854 65.5804 75.0967 65.5777C76.1194 65.5749 76.988 65.2885 77.7024 64.7184C78.4167 64.1369 78.9543 63.3229 79.3151 62.2765C79.6873 61.23 79.8715 60.0023 79.8677 58.5932C79.8639 57.1841 79.6731 55.963 79.2953 54.9299C78.9289 53.8968 78.3869 53.0971 77.6695 52.5309C76.9634 51.9646 76.0933 51.6829 75.0592 51.6857C74.0365 51.6884 73.168 51.9692 72.4535 52.5279C71.7391 53.0867 71.1902 53.8836 70.8066 54.9187C70.4344 55.9538 70.2502 57.1873 70.2541 58.6191ZM92.8277 71.6492L92.757 45.4674L101.092 45.4449L101.163 71.6267L92.8277 71.6492ZM96.9249 42.405C95.7545 42.4082 94.7477 42.0245 93.9047 41.2541C93.0617 40.4723 92.6387 39.5302 92.6357 38.428C92.6328 37.3371 93.0507 36.4041 93.8896 35.6291C94.7284 34.8428 95.733 34.448 96.9034 34.4448C98.0852 34.4417 99.092 34.831 99.9236 35.6128C100.767 36.3833 101.19 37.314 101.193 38.4049C101.196 39.5071 100.778 40.4515 99.9388 41.2378C99.1114 42.0128 98.1067 42.4019 96.9249 42.405ZM121.176 45.3908L121.193 51.5271L104.676 51.5717L104.659 45.4353L121.176 45.3908ZM108.102 39.1533L116.437 39.1308L116.503 63.3523C116.504 63.8637 116.585 64.2782 116.745 64.596C116.916 64.9023 117.161 65.1232 117.48 65.2588C117.798 65.3829 118.179 65.4444 118.622 65.4432C118.94 65.4423 119.275 65.413 119.628 65.3552C119.991 65.2861 120.264 65.2285 120.445 65.1826L121.723 71.1962C121.325 71.3109 120.763 71.4545 120.037 71.6269C119.321 71.7993 118.463 71.9095 117.464 71.9577C115.509 72.0539 113.832 71.8311 112.433 71.2894C111.045 70.7364 109.981 69.8756 109.239 68.7071C108.508 67.5386 108.152 66.068 108.17 64.2952L108.102 39.1533ZM147.98 53.3128L140.327 53.538C140.246 52.9927 140.029 52.5104 139.676 52.0909C139.322 51.66 138.861 51.326 138.292 51.0889C137.735 50.8404 137.087 50.7172 136.348 50.7192C135.382 50.7218 134.559 50.9172 133.878 51.3054C133.209 51.6935 132.88 52.2172 132.894 52.8762C132.884 53.3876 133.089 53.8302 133.511 54.2041C133.944 54.5779 134.712 54.877 135.814 55.1013L140.862 56.0422C143.477 56.5352 145.423 57.3595 146.699 58.5151C147.986 59.6707 148.638 61.2031 148.654 63.1121C148.648 64.9076 148.118 66.4715 147.065 67.8039C146.023 69.1363 144.594 70.1742 142.778 70.9178C140.961 71.65 138.883 72.0192 136.542 72.0255C132.803 72.0356 129.852 71.2765 127.689 69.7483C125.537 68.2086 124.304 66.1438 123.991 63.5537L132.223 63.3269C132.407 64.281 132.881 65.007 133.644 65.5049C134.406 66.0029 135.379 66.2502 136.56 66.247C137.629 66.2442 138.497 66.043 139.167 65.6434C139.836 65.2439 140.176 64.7146 140.185 64.0554C140.172 63.4646 139.91 62.9937 139.397 62.6428C138.885 62.2805 138.083 61.9986 136.992 61.797L132.421 60.94C129.795 60.4698 127.838 59.5944 126.55 58.3138C125.263 57.0218 124.622 55.3758 124.628 53.3758C124.612 51.6258 125.074 50.1303 126.014 48.8891C126.953 47.6365 128.292 46.6784 130.029 46.0146C131.765 45.3508 133.816 45.0157 136.179 45.0094C139.725 44.9998 142.522 45.7366 144.572 47.2197C146.621 48.6914 147.757 50.7225 147.98 53.3128Z" fill="white"/>
        <rect x="1.15197" y="1.39626" width="15" height="15" rx="3.5" transform="rotate(-0.154595 1.15197 1.39626)" fill="#18181B" stroke="#27272A"/>
        <rect x="21.1519" y="1.34231" width="15" height="15" rx="3.5" transform="rotate(-0.154595 21.1519 1.34231)" fill="#4C1D95" stroke="#6D28D9"/>
        <rect x="41.1518" y="1.28832" width="15" height="15" rx="3.5" transform="rotate(-0.154595 41.1518 1.28832)" fill="#5B21B6" stroke="#7C3AED"/>
        <rect x="61.1518" y="1.23437" width="15" height="15" rx="3.5" transform="rotate(-0.154595 61.1518 1.23437)" fill="#6D28D9" stroke="#8B5CF6"/>
        <rect x="81.1517" y="1.18041" width="15" height="15" rx="3.5" transform="rotate(-0.154595 81.1517 1.18041)" fill="#7C3AED" stroke="#A78BFA"/>
        <rect x="101.152" y="1.12646" width="15" height="15" rx="3.5" transform="rotate(-0.154595 101.152 1.12646)" fill="#8B5CF6" stroke="#C4B5FD"/>
        </svg>